<svg width="120" height="45" viewBox="0 0 120 45" fill="none" xmlns="http://www.w3.org/2000/svg">
<g clip-path="url(#clip0_9_32)">
<path d="M100 0.75H20C9.36852 0.75 0.75 9.36852 0.75 20V25C0.75 35.6315 9.36852 44.25 20 44.25H100C110.631 44.25 119.25 35.6315 119.25 25V20C119.25 9.36852 110.631 0.75 100 0.75Z" stroke="black" stroke-width="1.5"/>
<path d="M37.466 26.544H48.986V31.422H37.466V26.544ZM46.646 28.326H39.824V29.658H46.646V28.326ZM36.44 16.104H50.012V17.904H36.44V16.104ZM43.262 18.318C46.844 18.318 48.842 19.128 48.842 20.694C48.842 22.26 46.844 23.07 43.262 23.07C39.68 23.07 37.682 22.26 37.682 20.694C37.682 19.128 39.68 18.318 43.262 18.318ZM43.262 19.92C41.192 19.92 40.238 20.136 40.238 20.694C40.238 21.234 41.192 21.468 43.262 21.468C45.332 21.468 46.268 21.234 46.268 20.694C46.268 20.136 45.332 19.92 43.262 19.92ZM42.056 14.808H44.45V17.382H42.056V14.808ZM35.72 23.862H50.786V25.698H35.72V23.862ZM42.056 22.494H44.45V24.834H42.056V22.494ZM59.8206 15.762C63.3306 15.762 66.0486 17.688 66.0486 20.586C66.0486 23.502 63.3306 25.41 59.8206 25.41C56.3106 25.41 53.5926 23.502 53.5926 20.586C53.5926 17.688 56.3106 15.762 59.8206 15.762ZM59.8206 17.706C57.5526 17.706 55.9326 18.786 55.9326 20.586C55.9326 22.368 57.5526 23.448 59.8206 23.448C62.0886 23.448 63.7086 22.368 63.7086 20.586C63.7086 18.786 62.0886 17.706 59.8206 17.706ZM52.2966 27.642H67.3806V29.604H52.2966V27.642ZM68.8552 27.822H83.9392V29.766H68.8552V27.822ZM75.1732 24.672H77.5672V28.614H75.1732V24.672ZM70.5472 16.014H82.2472V21.558H72.9592V24.366H70.5832V19.686H79.8712V17.904H70.5472V16.014ZM70.5832 23.412H82.6252V25.338H70.5832V23.412Z" fill="black"/>
</g>
<defs>
<clipPath id="clip0_9_32">
<rect width="120" height="45" fill="white"/>
</clipPath>
</defs>
</svg>
