<svg width="120" height="45" viewBox="0 0 120 45" fill="none" xmlns="http://www.w3.org/2000/svg">
<rect x="0.75" y="0.75" width="118.5" height="43.5" rx="19.25" fill="#8B322C" stroke="black" stroke-width="1.5"/>
<path d="M22.45 16.268H24.326V29.274H22.45V16.268ZM17.34 17.178C19.3 17.178 20.742 18.97 20.742 21.798C20.742 24.654 19.3 26.446 17.34 26.446C15.38 26.446 13.938 24.654 13.938 21.798C13.938 18.97 15.38 17.178 17.34 17.178ZM17.34 18.872C16.374 18.872 15.716 19.894 15.716 21.798C15.716 23.73 16.374 24.766 17.34 24.766C18.306 24.766 18.95 23.73 18.95 21.798C18.95 19.894 18.306 18.872 17.34 18.872ZM26.8029 17.612H31.9269V26.012H26.8029V17.612ZM30.1909 19.068H28.5389V24.556H30.1909V19.068ZM35.8049 16.282H37.5829V29.246H35.8049V16.282ZM30.9889 20.986H33.9009V22.484H30.9889V20.986ZM33.1589 16.478H34.9089V28.658H33.1589V16.478ZM42.9718 16.66C44.9458 16.66 46.4298 17.892 46.4298 19.628C46.4298 21.35 44.9458 22.582 42.9718 22.582C40.9978 22.582 39.5138 21.35 39.5138 19.628C39.5138 17.892 40.9978 16.66 42.9718 16.66ZM42.9718 18.172C42.0198 18.172 41.3058 18.704 41.3058 19.628C41.3058 20.552 42.0198 21.084 42.9718 21.084C43.9238 21.084 44.6238 20.552 44.6238 19.628C44.6238 18.704 43.9238 18.172 42.9718 18.172ZM48.2218 16.282H50.0978V22.764H48.2218V16.282ZM41.4458 23.296H50.0978V26.852H43.2938V28.42H41.4738V25.508H48.2498V24.738H41.4458V23.296ZM41.4738 27.664H50.4198V29.106H41.4738V27.664ZM58.377 22.204H60.239V24.066H58.377V22.204ZM63.865 16.296H65.727V25.116H63.865V16.296ZM65.069 19.992H67.351V21.518H65.069V19.992ZM55.493 24.864L55.283 23.422C57.607 23.422 60.673 23.408 63.291 23.086L63.431 24.36C60.729 24.822 57.761 24.85 55.493 24.864ZM56.935 25.634H65.727V29.246H63.865V27.062H56.935V25.634ZM55.619 17.234H62.969V18.564H55.619V17.234ZM59.301 18.872C61.205 18.872 62.451 19.614 62.451 20.804C62.451 21.994 61.205 22.736 59.301 22.736C57.383 22.736 56.137 21.994 56.137 20.804C56.137 19.614 57.383 18.872 59.301 18.872ZM59.301 20.09C58.419 20.09 57.901 20.314 57.901 20.804C57.901 21.266 58.419 21.518 59.301 21.518C60.169 21.518 60.687 21.266 60.687 20.804C60.687 20.314 60.169 20.09 59.301 20.09ZM58.377 16.184H60.239V17.836H58.377V16.184ZM77.2199 16.296H79.0959V25.606H77.2199V16.296ZM70.4579 27.538H79.4179V29.022H70.4579V27.538ZM70.4579 24.668H72.3199V28.14H70.4579V24.668ZM72.0399 17.108C74.0279 17.108 75.5539 18.48 75.5539 20.398C75.5539 22.302 74.0279 23.688 72.0399 23.688C70.0519 23.688 68.5119 22.302 68.5119 20.398C68.5119 18.48 70.0519 17.108 72.0399 17.108ZM72.0399 18.718C71.0739 18.718 70.3319 19.334 70.3319 20.398C70.3319 21.448 71.0739 22.064 72.0399 22.064C72.9919 22.064 73.7339 21.448 73.7339 20.398C73.7339 19.334 72.9919 18.718 72.0399 18.718ZM89.5108 16.282H91.3588V29.246H89.5108V16.282ZM90.9388 21.336H93.2348V22.89H90.9388V21.336ZM81.1388 18.2H88.6848V19.684H81.1388V18.2ZM84.9328 20.412C86.8228 20.412 88.2228 21.7 88.2228 23.506C88.2228 25.312 86.8228 26.6 84.9328 26.6C83.0428 26.6 81.6428 25.312 81.6428 23.506C81.6428 21.7 83.0428 20.412 84.9328 20.412ZM84.9328 21.924C84.0508 21.924 83.4208 22.512 83.4208 23.506C83.4208 24.5 84.0508 25.088 84.9328 25.088C85.8148 25.088 86.4448 24.5 86.4448 23.506C86.4448 22.512 85.8148 21.924 84.9328 21.924ZM83.9948 16.492H85.8568V18.76H83.9948V16.492ZM103.006 16.282H104.882V29.246H103.006V16.282ZM99.1837 17.626H101.032C101.032 21.588 99.6877 24.836 95.0817 27.062L94.1157 25.578C97.8397 23.786 99.1837 21.434 99.1837 17.962V17.626ZM94.8017 17.626H100.066V19.096H94.8017V17.626Z" fill="white"/>
</svg>
